<svg width="45" height="45" viewBox="0 0 45 45" fill="none" xmlns="http://www.w3.org/2000/svg">
<path fill-rule="evenodd" clip-rule="evenodd" d="M43.78 1.70711C44.1705 1.31658 44.1705 0.683418 43.78 0.292893C43.3894 -0.0976313 42.7563 -0.097631 42.3657 0.292893L35.8811 6.77756C34.7659 6.24486 33.3899 6.44032 32.4663 7.36396L30.3449 9.48528L29.6378 8.77818C28.8568 7.99713 27.5904 7.99713 26.8094 8.77818L7.01041 28.5772L4.88909 26.4558C4.49856 26.0653 3.8654 26.0653 3.47487 26.4558C3.08435 26.8464 3.08435 27.4795 3.47487 27.8701L6.3033 30.6985L7.71751 32.1127L3.12132 36.7089L1.70711 35.2947C1.31658 34.9042 0.683417 34.9042 0.292893 35.2947C-0.0976309 35.6852 -0.0976312 36.3184 0.292893 36.7089L2.41421 38.8302L5.24264 41.6586L7.36396 43.78C7.75449 44.1705 8.38765 44.1705 8.77818 43.78C9.1687 43.3894 9.1687 42.7563 8.77818 42.3657L7.36396 40.9515L11.9602 36.3553L13.3744 37.7696L16.2028 40.598C16.5933 40.9885 17.2265 40.9885 17.617 40.598C18.0075 40.2075 18.0075 39.5743 17.617 39.1838L15.4957 37.0624L35.2947 17.2635C36.0757 16.4824 36.0757 15.2161 35.2947 14.435L34.5876 13.7279L36.7089 11.6066C37.6325 10.683 37.828 9.3069 37.2953 8.19178L43.78 1.70711ZM35.2947 10.1924L33.1734 12.3137L31.7591 10.8995L33.8805 8.77817C34.271 8.38765 34.9042 8.38765 35.2947 8.77818C35.6852 9.1687 35.6852 9.80187 35.2947 10.1924ZM9.83883 31.4056L8.42462 29.9914L28.2236 10.1924L29.6378 11.6066L32.4663 14.435L33.8805 15.8492L14.0815 35.6482L12.6673 34.234L9.83883 31.4056ZM4.53553 38.1231L9.13173 33.5269L10.5459 34.9411L5.94975 39.5373L4.53553 38.1231ZM26.8096 15.8493C26.419 15.4588 25.7859 15.4588 25.3953 15.8493C25.0048 16.2399 25.0048 16.873 25.3953 17.2636L26.8096 18.6778C27.2001 19.0683 27.8332 19.0683 28.2238 18.6778C28.6143 18.2872 28.6143 17.6541 28.2238 17.2636L26.8096 15.8493ZM22.5667 18.6775C22.9573 18.2869 23.5904 18.2869 23.9809 18.6775L25.3952 20.0917C25.7857 20.4822 25.7857 21.1154 25.3952 21.5059C25.0046 21.8964 24.3715 21.8964 23.9809 21.5059L22.5667 20.0917C22.1762 19.7012 22.1762 19.068 22.5667 18.6775ZM21.1528 21.5061C20.7623 21.1156 20.1291 21.1156 19.7386 21.5061C19.3481 21.8966 19.3481 22.5298 19.7386 22.9203L21.1528 24.3345C21.5433 24.725 22.1765 24.725 22.567 24.3345C22.9576 23.944 22.9576 23.3108 22.567 22.9203L21.1528 21.5061ZM16.91 24.3347C17.3005 23.9442 17.9337 23.9442 18.3242 24.3347L19.7384 25.7489C20.1289 26.1394 20.1289 26.7726 19.7384 27.1631C19.3479 27.5536 18.7147 27.5536 18.3242 27.1631L16.91 25.7489C16.5195 25.3584 16.5195 24.7252 16.91 24.3347ZM15.4961 27.1628C15.1056 26.7723 14.4724 26.7723 14.0819 27.1628C13.6913 27.5533 13.6913 28.1865 14.0819 28.577L15.4961 29.9912C15.8866 30.3818 16.5198 30.3818 16.9103 29.9912C17.3008 29.6007 17.3008 28.9676 16.9103 28.577L15.4961 27.1628Z" fill="#086358"/>
</svg>
