<svg width="24" height="24" viewBox="0 0 24 24" fill="none" xmlns="http://www.w3.org/2000/svg">
<path fill-rule="evenodd" clip-rule="evenodd" d="M8 3H9V4H15V3H16V4H19C20.1046 4 21 4.89543 21 6V18C21 19.1046 20.1046 20 19 20H5C3.89543 20 3 19.1046 3 18V6C3 4.89543 3.89543 4 5 4H8V3ZM15 5V6H16V5H19C19.5523 5 20 5.44772 20 6V18C20 18.5523 19.5523 19 19 19H5C4.44772 19 4 18.5523 4 18V6C4 5.44772 4.44772 5 5 5H8V6H9V5H15ZM7 8V10H9V8H7ZM9 13V11H7V13H9ZM9 14V16H7V14H9ZM13 8H11V10H13V8ZM11 11H13V13H11V11ZM13 14H11V16H13V14ZM15 10V8H17V10H15ZM17 11V13H15V11H17ZM17 16V14H15V16H17Z" fill="#364B76"/>
</svg>
