<svg width="32" height="32" viewBox="0 0 32 32" fill="none" xmlns="http://www.w3.org/2000/svg">
<path fill-rule="evenodd" clip-rule="evenodd" d="M3 13C3 7.47715 7.47715 3 13 3C18.5228 3 23 7.47715 23 13C23 15.7673 21.8773 18.2705 20.06 20.0821C18.2502 21.8864 15.7561 23 13 23C7.47715 23 3 18.5228 3 13ZM13 1C6.37258 1 1 6.37258 1 13C1 19.6274 6.37258 25 13 25C15.9533 25 18.6587 23.9321 20.7488 22.163L29.2929 30.7071L30.7071 29.2929L22.163 20.7488C23.9321 18.6587 25 15.9533 25 13C25 6.37258 19.6274 1 13 1Z" fill="#BFBFBF"/>
</svg>
