<svg width="44" height="45" viewBox="0 0 44 45" fill="none" xmlns="http://www.w3.org/2000/svg">
<path fill-rule="evenodd" clip-rule="evenodd" d="M30.5387 3.46541C25.2265 1.51153 18.7735 1.51153 13.4613 3.46541C12.7074 3.74271 12.4378 4.09848 12.3263 4.40655C12.1963 4.76576 12.2048 5.27316 12.4013 5.95267C12.7153 7.03826 13.3725 8.16335 13.964 9.17586L13.9641 9.17589L13.9641 9.1759C14.1351 9.46862 14.3006 9.75193 14.4507 10.0222C14.487 10.0875 14.5222 10.1511 14.5564 10.2131L14.5566 10.2135L14.5566 10.2135L14.5566 10.2135C14.8605 10.7632 15.0919 11.1819 15.3852 11.4789C15.5294 11.625 15.657 11.7049 15.7763 11.746C15.8897 11.7851 16.0509 11.8087 16.2981 11.7587C16.4723 11.7235 16.7355 11.6723 16.9306 11.6353L16.9315 11.6351L16.9346 11.6345L16.9382 11.6338L16.9407 11.6333L16.9414 11.6332L16.9417 11.6332L16.9462 11.6323L16.9472 11.6321L16.9497 11.6316L16.9507 11.6315L16.951 11.6314L16.9516 11.6313L16.9541 11.6308L16.9576 11.6301L16.9603 11.6297L16.9619 11.6294C20.6222 10.9446 24.07 11.0236 27.7019 11.7587C27.9491 11.8087 28.1103 11.7851 28.2237 11.746C28.343 11.7049 28.4706 11.625 28.6148 11.4789C28.9081 11.1819 29.1395 10.7632 29.4434 10.2135C29.4777 10.1514 29.5129 10.0876 29.5493 10.0222C29.6994 9.75204 29.8648 9.46885 30.0357 9.17626L30.0358 9.17613L30.0359 9.17589L30.0359 9.17588L30.036 9.17586C30.6275 8.16335 31.2847 7.03826 31.5987 5.95267C31.7952 5.27316 31.8037 4.76576 31.6737 4.40655C31.5622 4.09848 31.2926 3.74271 30.5387 3.46541ZM16.8303 11.6627L16.8361 11.6607L16.8321 11.6619L16.8303 11.6627ZM16.1283 13.7857C15.7774 13.7962 15.4419 13.7463 15.1244 13.6368C14.6459 13.4718 14.2654 13.1914 13.962 12.8841C13.6451 12.5631 13.3795 12.1734 13.1567 11.8018C8.88484 13.8657 6.15977 16.7578 4.4683 20.2007C2.65724 23.887 2 28.2697 2 33.07C2 34.754 2.4346 35.8894 3.07558 36.6843C3.72521 37.4901 4.66586 38.044 5.84517 38.4144C7.64574 38.9799 9.8043 39.0667 11.9103 39.0742C9.22419 35.3923 7.8846 30.6083 7.28487 26.4286C7.09038 25.0731 8.23716 24.1423 9.30763 24.0665C12.4037 23.8471 15.9281 20.865 16.1283 13.7857ZM13.4296 41.0718C13.3446 41.0722 13.2588 41.0727 13.1723 41.0731L13.171 41.0731C10.7403 41.0859 7.7271 41.1018 5.24585 40.3225C3.82341 39.8757 2.49131 39.1461 1.51862 37.9397C0.537278 36.7225 0 35.1172 0 33.07C0 28.1125 0.674363 23.3874 2.67324 19.3188C4.55096 15.4968 7.57013 12.3109 12.162 10.0616C11.5793 9.0642 10.8398 7.75218 10.4801 6.50831C10.23 5.64375 10.1096 4.65489 10.4456 3.72609C10.8002 2.74615 11.5915 2.02215 12.7709 1.58835C18.5288 -0.52945 25.4712 -0.52945 31.2291 1.58835C32.4085 2.02215 33.1998 2.74615 33.5544 3.72609C33.8904 4.65489 33.77 5.64375 33.5199 6.50831C33.1602 7.75218 32.4207 9.0642 31.838 10.0616C36.4299 12.3109 39.449 15.4968 41.3268 19.3188C43.3256 23.3874 44 28.1125 44 33.07C44 35.1172 43.4627 36.7225 42.4814 37.9397C41.5087 39.1461 40.1766 39.8757 38.7541 40.3225C36.2729 41.1018 33.2597 41.0859 30.829 41.0731L30.8277 41.0731C30.6761 41.0723 30.5268 41.0715 30.38 41.0709C27.8852 43.5503 24.9761 44.8523 22 44.8523C19.0239 44.8523 16.1148 43.5503 13.62 41.0709C13.557 41.0712 13.4935 41.0715 13.4296 41.0718ZM32.0975 39.0742C34.201 39.0665 36.3565 38.9793 38.1548 38.4144C39.3341 38.044 40.2748 37.4901 40.9244 36.6843C41.5654 35.8894 42 34.754 42 33.07C42 28.2697 41.3428 23.887 39.5317 20.2007C37.8402 16.7578 35.1152 13.8657 30.8433 11.8018C30.6205 12.1734 30.3549 12.5632 30.038 12.8842C29.7346 13.1914 29.3541 13.4718 28.8756 13.6368C28.391 13.8039 27.8646 13.8322 27.3051 13.719C24.2297 13.0965 21.3277 12.9802 18.2936 13.4331C18.7876 15.9105 19.7815 18.9068 21.7267 21.0841C22.8157 22.303 24.1999 23.2628 25.9795 23.7461C27.7641 24.2308 30.0132 24.2542 32.8539 23.4902C33.8478 23.223 34.8706 23.4453 35.6231 24.0095C36.389 24.5837 36.8899 25.5317 36.7447 26.6403C36.2007 30.7935 34.7585 35.4665 32.0975 39.0742ZM17.5721 18.0245C16.3027 23.0654 13.0523 25.8062 9.44899 26.0615C9.37678 26.0666 9.31312 26.1013 9.2791 26.1375C9.27254 26.1445 9.26842 26.1501 9.26595 26.1539C9.94163 30.8549 11.5521 36.019 14.7621 39.3793C17.0186 41.7414 19.5457 42.8523 22 42.8523C24.4543 42.8523 26.9814 41.7414 29.2379 39.3793C32.4085 36.0603 34.1579 30.9899 34.7616 26.3805C34.8029 26.0657 34.6772 25.8 34.4233 25.6097C34.156 25.4093 33.7658 25.3161 33.3733 25.4216C30.2657 26.2573 27.6494 26.2721 25.4553 25.6762C23.2561 25.0789 21.5482 23.8861 20.2353 22.4166C19.0618 21.1031 18.2021 19.5672 17.5721 18.0245ZM18.8885 35.611C18.638 35.1255 18.0429 34.9304 17.5528 35.1754C17.0588 35.4224 16.8586 36.0231 17.1056 36.517L18 36.0698C17.1056 36.517 17.1058 36.5176 17.1061 36.5181L17.1067 36.5192L17.1079 36.5216L17.1106 36.5269L17.1173 36.5398C17.1205 36.546 17.1242 36.5529 17.1283 36.5606C17.1307 36.5649 17.1331 36.5694 17.1357 36.5742C17.1504 36.6008 17.1697 36.6347 17.194 36.6747C17.2427 36.7548 17.3116 36.8602 17.4031 36.9823C17.5859 37.2261 17.8619 37.54 18.2503 37.8507C19.0398 38.4823 20.2571 39.0698 22 39.0698C23.7429 39.0698 24.9602 38.4823 25.7497 37.8507C26.1381 37.54 26.4141 37.2261 26.5969 36.9823C26.6884 36.8602 26.7573 36.7548 26.806 36.6747C26.8303 36.6347 26.8496 36.6008 26.8643 36.5742C26.8683 36.5668 26.872 36.5599 26.8754 36.5537C26.8781 36.5487 26.8805 36.5441 26.8827 36.5398L26.8894 36.5269L26.8921 36.5216L26.8933 36.5192L26.8939 36.5181C26.8942 36.5176 26.8944 36.517 26 36.0698L26.8944 36.517C27.1414 36.0231 26.9412 35.4224 26.4472 35.1754C25.9571 34.9303 25.362 35.1255 25.1115 35.611C25.1096 35.6143 25.1046 35.6232 25.0964 35.6368C25.0786 35.6661 25.0459 35.7169 24.9969 35.7823C24.8984 35.9136 24.7369 36.0997 24.5003 36.289C24.0398 36.6573 23.2571 37.0698 22 37.0698C20.7429 37.0698 19.9602 36.6573 19.4997 36.289C19.2631 36.0997 19.1016 35.9136 19.0031 35.7823C18.9541 35.7169 18.9214 35.6661 18.9036 35.6368C18.8987 35.6287 18.895 35.6224 18.8924 35.6178C18.8906 35.6147 18.8893 35.6124 18.8885 35.611ZM25.1061 35.6216L25.1056 35.6226L25.9793 36.0595C25.1056 35.6226 25.1058 35.6221 25.1061 35.6216ZM23 5.06982C23 4.51754 22.5523 4.06982 22 4.06982C21.4477 4.06982 21 4.51754 21 5.06982V6.06982H20C19.4477 6.06982 19 6.51754 19 7.06982C19 7.62211 19.4477 8.06982 20 8.06982H21V9.06982C21 9.62211 21.4477 10.0698 22 10.0698C22.5523 10.0698 23 9.62211 23 9.06982V8.06982H24C24.5523 8.06982 25 7.62211 25 7.06982C25 6.51754 24.5523 6.06982 24 6.06982H23V5.06982Z" fill="#086358"/>
</svg>
