<svg width="42" height="38" viewBox="0 0 42 38" fill="none" xmlns="http://www.w3.org/2000/svg">
<path fill-rule="evenodd" clip-rule="evenodd" d="M17 1C17 0.447715 17.4477 0 18 0H21H24C24.5523 0 25 0.447715 25 1C25 1.55228 24.5523 2 24 2H22V5.00598C33.0908 5.27146 42 14.3453 42 25.5C42 26.8807 40.8807 28 39.5 28H22V30H35.75C39.2018 30 42 32.7982 42 36.25C42 37.2165 41.2165 38 40.25 38H1.75C0.783503 38 0 37.2165 0 36.25C0 32.7982 2.79822 30 6.25 30H20V28H2.5C1.11929 28 0 26.8807 0 25.5C0 14.3453 8.90917 5.27146 20 5.00598V2H18C17.4477 2 17 1.55228 17 1ZM20.5 7C10.2827 7 2 15.2827 2 25.5C2 25.7761 2.22386 26 2.5 26H21H39.5C39.7761 26 40 25.7761 40 25.5C40 15.2827 31.7173 7 21.5 7H21H20.5ZM38.4888 33C37.7491 32.376 36.7935 32 35.75 32H21H6.25C5.20654 32 4.25091 32.376 3.51124 33H4C4.55228 33 5 33.4477 5 34C5 34.5523 4.55228 35 4 35H2.1868C2.08879 35.319 2.02731 35.6539 2.00723 36H39.9928C39.9727 35.6539 39.9112 35.319 39.8132 35H38C37.4477 35 37 34.5523 37 34C37 33.4477 37.4477 33 38 33H38.4888ZM33.6081 4.46125C33.9057 3.99597 34.5241 3.85999 34.9893 4.15754C37.5933 5.82277 39.8805 7.93908 41.7411 10.3964C42.0744 10.8367 41.9878 11.4639 41.5474 11.7973C41.1071 12.1306 40.4799 12.044 40.1465 11.6036C38.4283 9.33433 36.316 7.37992 33.9118 5.84246C33.4466 5.54492 33.3106 4.92653 33.6081 4.46125ZM8.34118 4.49094C8.63981 4.95552 8.50528 5.57423 8.0407 5.87286C5.65617 7.40565 3.56031 9.34926 1.85341 11.6036C1.52002 12.044 0.892822 12.1306 0.45251 11.7973C0.012198 11.4639 -0.0744853 10.8367 0.258897 10.3964C2.10719 7.95525 4.37655 5.85064 6.95925 4.19046C7.42383 3.89183 8.04254 4.02636 8.34118 4.49094ZM11 33C10.4477 33 10 33.4477 10 34C10 34.5523 10.4477 35 11 35H13C13.5523 35 14 34.5523 14 34C14 33.4477 13.5523 33 13 33H11ZM20 33C19.4477 33 19 33.4477 19 34C19 34.5523 19.4477 35 20 35H22C22.5523 35 23 34.5523 23 34C23 33.4477 22.5523 33 22 33H20ZM28 34C28 33.4477 28.4477 33 29 33H31C31.5523 33 32 33.4477 32 34C32 34.5523 31.5523 35 31 35H29C28.4477 35 28 34.5523 28 34Z" fill="#086358"/>
</svg>
