<svg width="40" height="40" viewBox="0 0 40 40" fill="none" xmlns="http://www.w3.org/2000/svg">
<path fill-rule="evenodd" clip-rule="evenodd" d="M25.6511 2.23279C28.6283 -0.744263 33.4554 -0.744265 36.4326 2.23279L37.7708 3.57089C40.748 6.54795 40.748 11.3747 37.7708 14.3518L32.1216 20.0007L37.7708 25.6496C40.748 28.6266 40.748 33.4534 37.7708 36.4304L36.4326 37.7685C33.4554 40.7456 28.6283 40.7456 25.6511 37.7685L20.0019 32.1196L14.3526 37.7685C11.3754 40.7456 6.54834 40.7456 3.57111 37.7685L2.23293 36.4304C-0.74431 33.4534 -0.744308 28.6266 2.23293 25.6496L7.88216 20.0007L2.23293 14.3518C-0.744308 11.3747 -0.744308 6.54795 2.23293 3.57089L3.57111 2.23279C6.54834 -0.744262 11.3754 -0.744263 14.3526 2.23279L20.0019 7.88169L25.6511 2.23279ZM18.5876 9.29586L12.9384 3.64696C10.7422 1.45093 7.18153 1.45093 4.98536 3.64696L3.64718 4.98506C1.45102 7.1811 1.45102 10.7416 3.64718 12.9376L9.29642 18.5865L11.9476 15.9354C11.6017 16.0472 11.2069 15.9657 10.9322 15.691L10.2624 15.0215C9.87187 14.631 9.87187 13.9979 10.2624 13.6075C10.653 13.217 11.2863 13.217 11.6768 13.6075L12.3466 14.277C12.6212 14.5516 12.7027 14.9462 12.5911 15.292L15.9635 11.9198C15.6172 12.0324 15.2215 11.9511 14.9463 11.676L14.2767 11.0064C13.8861 10.6158 13.8861 9.9827 14.2767 9.59219C14.6672 9.20167 15.3004 9.20167 15.6909 9.59219L16.3606 10.2618C16.6358 10.537 16.717 10.9326 16.6044 11.2789L18.5876 9.29586ZM21.4161 30.7055L27.0653 36.3544C29.2615 38.5504 32.8222 38.5504 35.0184 36.3544L36.3565 35.0163C38.5527 32.8202 38.5527 29.2598 36.3565 27.0637L30.7073 21.4148L28.7231 23.3989C29.0697 23.2859 29.4658 23.3671 29.7412 23.6425L30.4109 24.3121C30.8014 24.7026 30.8014 25.3357 30.4109 25.7263C30.0203 26.1168 29.3872 26.1168 28.9966 25.7263L28.327 25.0566C28.0515 24.7812 27.9704 24.3851 28.0834 24.0386L24.71 27.4118C25.0563 27.2992 25.4519 27.3805 25.727 27.6557L26.3966 28.3253C26.7871 28.7159 26.7871 29.3491 26.3966 29.7396C26.0061 30.1302 25.373 30.1302 24.9825 29.7396L24.3129 29.07C24.0377 28.7948 23.9564 28.3991 24.0691 28.0527L21.4161 30.7055ZM35.0184 3.64696C32.8222 1.45093 29.2615 1.45093 27.0654 3.64696L20.709 10.0029L10.0035 20.7077L3.64718 27.0637C1.45102 29.2598 1.45102 32.8202 3.64718 35.0163L4.98536 36.3544C7.18153 38.5504 10.7422 38.5504 12.9384 36.3544L19.2947 29.9984L30.0002 19.2936L36.3565 12.9376C38.5527 10.7416 38.5527 7.1811 36.3565 4.98506L35.0184 3.64696ZM30.41 6.99288C30.8002 6.60207 30.8002 5.96845 30.41 5.57764C30.0197 5.18684 29.387 5.18684 28.9968 5.57764L28.3276 6.24776C27.9374 6.63857 27.9374 7.27219 28.3276 7.663C28.7179 8.0538 29.3506 8.0538 29.7408 7.663L30.41 6.99288ZM12.3463 25.0563C12.7368 24.6658 12.7368 24.0327 12.3463 23.6423C11.9557 23.2518 11.3224 23.2518 10.9319 23.6423L10.2622 24.3118C9.87158 24.7023 9.87158 25.3354 10.2622 25.7258C10.6527 26.1163 11.286 26.1163 11.6765 25.7258L12.3463 25.0563ZM30.4107 9.59191C30.8012 9.98242 30.8012 10.6156 30.4107 11.0061L29.741 11.6757C29.3505 12.0662 28.7173 12.0662 28.3267 11.6757C27.9362 11.2852 27.9362 10.652 28.3267 10.2615L28.9964 9.59191C29.3869 9.2014 30.0201 9.2014 30.4107 9.59191ZM12.3463 29.0705C12.7368 28.68 12.7368 28.047 12.3463 27.6565C11.9557 27.266 11.3224 27.266 10.9319 27.6565L10.2622 28.326C9.87158 28.7165 9.87158 29.3496 10.2622 29.7401C10.6527 30.1306 11.286 30.1306 11.6765 29.7401L12.3463 29.0705ZM26.3965 9.59191C26.787 9.98242 26.787 10.6156 26.3965 11.0061L25.7268 11.6757C25.3363 12.0662 24.7031 12.0662 24.3126 11.6757C23.922 11.2852 23.922 10.652 24.3126 10.2615L24.9822 9.59191C25.3728 9.2014 26.006 9.2014 26.3965 9.59191ZM8.33113 29.0705C8.7217 28.68 8.7217 28.047 8.33113 27.6565C7.94056 27.266 7.30731 27.266 6.91674 27.6565L6.24702 28.326C5.85645 28.7165 5.85645 29.3496 6.24702 29.7401C6.63759 30.1306 7.27084 30.1306 7.66141 29.7401L8.33113 29.0705ZM34.4248 9.59191C34.8153 9.98242 34.8153 10.6156 34.4248 11.0061L33.7552 11.6757C33.3646 12.0662 32.7314 12.0662 32.3409 11.6757C31.9504 11.2852 31.9504 10.652 32.3409 10.2615L33.0106 9.59191C33.4011 9.2014 34.0343 9.2014 34.4248 9.59191ZM16.3604 29.0706C16.7509 28.6801 16.7509 28.0469 16.3604 27.6564C15.9698 27.2659 15.3366 27.2659 14.9461 27.6564L14.2764 28.326C13.8859 28.7165 13.8859 29.3497 14.2764 29.7402C14.667 30.1307 15.3002 30.1307 15.6907 29.7402L16.3604 29.0706ZM30.4107 13.6066C30.8012 13.9971 30.8012 14.6303 30.4107 15.0208L29.741 15.6904C29.3505 16.0809 28.7173 16.0809 28.3267 15.6904C27.9362 15.2999 27.9362 14.6668 28.3267 14.2762L28.9964 13.6066C29.3869 13.2161 30.0201 13.2161 30.4107 13.6066ZM12.3463 33.0852C12.7368 32.6948 12.7368 32.0617 12.3463 31.6712C11.9557 31.2807 11.3224 31.2807 10.9319 31.6712L10.2622 32.3407C9.87158 32.7312 9.87158 33.3643 10.2622 33.7548C10.6527 34.1453 11.286 34.1453 11.6765 33.7548L12.3463 33.0852ZM6.24646 9.5931C6.6375 9.2031 7.2715 9.2031 7.66255 9.5931L8.33307 10.2619C8.72411 10.6519 8.72411 11.2842 8.33307 11.6742C7.94203 12.0642 7.30802 12.0642 6.91698 11.6742L6.24646 11.0054C5.85541 10.6154 5.85541 9.98311 6.24646 9.5931ZM10.2624 9.59225C10.653 9.20178 11.2863 9.20178 11.6768 9.59225L12.3466 10.2618C12.7371 10.6523 12.7371 11.2854 12.3466 11.6758C11.956 12.0663 11.3227 12.0663 10.9322 11.6758L10.2624 11.0063C9.87187 10.6158 9.87187 9.98273 10.2624 9.59225ZM29.7412 27.6557C29.3507 27.2651 28.7175 27.2651 28.327 27.6557C27.9365 28.0462 27.9365 28.6794 28.327 29.07L28.9966 29.7396C29.3871 30.1302 30.0203 30.1302 30.4108 29.7396C30.8013 29.3491 30.8013 28.7159 30.4108 28.3253L29.7412 27.6557ZM29.7406 31.669C29.3503 31.2782 28.7176 31.2782 28.3274 31.669C27.9371 32.0598 27.9371 32.6935 28.3274 33.0843L28.9965 33.7544C29.3868 34.1452 30.0195 34.1452 30.4097 33.7544C30.7999 33.3636 30.7999 32.73 30.4097 32.3391L29.7406 31.669ZM10.2624 5.57851C10.653 5.18804 11.2863 5.18804 11.6768 5.57851L12.3466 6.24807C12.7371 6.63854 12.7371 7.27163 12.3466 7.6621C11.956 8.05258 11.3227 8.05258 10.9322 7.6621L10.2624 6.99255C9.87187 6.60207 9.87187 5.96899 10.2624 5.57851ZM33.7563 27.6557C33.3658 27.2651 32.7327 27.2651 32.3422 27.6557C31.9517 28.0462 31.9517 28.6794 32.3422 29.07L33.0118 29.7396C33.4023 30.1302 34.0354 30.1302 34.4259 29.7396C34.8164 29.3491 34.8164 28.7159 34.4259 28.3253L33.7563 27.6557ZM22.42 13.6452C21.639 12.8641 20.3726 12.8641 19.5915 13.6452L14.3136 18.9227C13.5325 19.7038 13.5325 20.9701 14.3136 21.7511L18.2531 25.6903C19.0342 26.4713 20.3005 26.4713 21.0816 25.6903L26.3595 20.4127C27.1406 19.6317 27.1406 18.3654 26.3595 17.5844L22.42 13.6452ZM15.7279 20.3369L21.0058 15.0593L24.9452 18.9986L19.6673 24.2761L15.7279 20.3369Z" fill="#086358"/>
</svg>
